<?xml version="1.0"?>
<svg xmlns:rdf="http://www.w3.org/1999/02/22-rdf-syntax-ns#" xmlns="http://www.w3.org/2000/svg" xmlns:cc="http://web.resource.org/cc/" xmlns:dc="http://purl.org/dc/elements/1.1/" xmlns:sodipodi="http://inkscape.sourceforge.net/DTD/sodipodi-0.dtd" xmlns:svg="http://www.w3.org/2000/svg" id="Layer_1" style="enable-background:new 0 0 398.156 407.974" space="preserve" sodipodi:version="0.32" viewBox="0 0 398.156 407.974" version="1.1" sodipodi:docname="lattine birra.svg" sodipodi:docbase="F:\openclip\svg da inviare\02">
  <sodipodi:namedview id="base" bordercolor="#666666" borderopacity="1.0" pagecolor="#ffffff"/>
  <g id="g3">
    <path id="path5" fill="#B3B3B3" d="m17.341 217.77c0 18.928-1.597 34.271 16.655 45.206 3.564 2.133 9.041 1.705 9.041 6.334v21.199c0 10.298 3.668 16.182 10.946 23.384 6.395 6.329 14.512 12.616 22.84 16.177 1.914 0.817 10.312 1.882 11.42 3.331 2.17 2.84-0.497 13.217 0 17.129 2.373 18.677 16.455 31.967 33.498 38.459 38.621 14.712 80.352 12.761 113.56-13.443 3.457-2.733 12.658-17.399 16.343-17.399 4.588 0 11.953-1.645 15.698 1.231 4.168 3.207 8.425 5.917 13.388 7.779 17.361 6.507 35.671 8.439 54.063 5.985 2.682-0.357 5.362-0.766 8.035-1.199-22.976 13.691-55.825 19.485-81.849 12.376-7.416-2.026-14.132-6.088-20.749-9.83-2.987-1.687-12.742 8.218-16.366 10.499-13.731 8.643-28.918 16.381-44.913 19.675-29.16 6.009-59.877 4.267-87.159-8.755-23.667-11.301-50.817-30.456-34.477-60.601-27.027-10.805-57.964-34.662-36.165-64.241-28.132-12.35-26.942-36.95-3.798-53.29"/>
    <path id="path7" fill="#00B53D" d="m29.713 13.627c-3.743 6.067-7.033 14.396-7.614 20.94-0.253 2.855 1.031 6.031 0.477 8.564-0.542 2.472-3.128 3.997-3.809 7.138-2.365 10.895 0 24.776 0 35.738v154.63c0 14.573 25.222 19.429 25.222 27.203 0 23.193-0.853 34.713 17.658 50.137 6.715 5.6 14.966 9.801 23.264 12.565 7.539 2.519 4.319 19.183 6.293 27.073 9.382 37.506 69.638 43.357 100.3 37.883 19.207-3.431 39.003-11.725 51.154-27.599 6.469-8.448 8.054-17.162 21.65-12.611 9.917 3.317 17.816 11.213 28.788 14.057 37.822 9.804 75.862-0.005 96.128-33.803 11.529-19.234 8.323-44.133 8.323-65.625v-169.34c0-7.972-1.381-15.544-2.854-22.715-3.109-15.128-25.591-17.378-39.494-19.034-6.92-0.825-22.293 1.713-28.078-1.426-4.619-2.507-2.951-4.875-3.806-9.041-0.925-4.505-0.674-9.031-4.758-12.849-5.86-5.474-19.522-6.19-27.125-7.138-8.555-1.067-11.115 0.272-14.75-5.708-4.875-8.019 1.115-13.543-10.948-16.895-18.98-5.274-38.42-5.776-58.04-5.47-14.661 0.23-31.074 0.825-44.919 6.099-12.993 4.949-2.977 12.258-9.806 18.646-0.916-0.834-1.315-1.608-1.902-2.379-2.075-2.732 2.051-6.441-1.727-8.602-3.03-1.73-5.344-2.95-8.62-3.991-11.529-3.667-23.681-4.685-35.757-5.04-25.49-0.75-51.978 0.715-75.227 8.59"/>
    <path id="path9" d="m29.713 13.627c-3.743 6.067-7.033 14.396-7.614 20.94-0.253 2.855 1.031 6.031 0.477 8.564-0.542 2.472-3.128 3.997-3.809 7.138-2.365 10.895 0 24.776 0 35.738v154.63c0 14.573 25.222 19.429 25.222 27.203 0 23.193-0.853 34.713 17.658 50.137 6.715 5.6 14.966 9.801 23.264 12.565 7.539 2.519 4.319 19.183 6.293 27.073 9.382 37.506 69.638 43.357 100.3 37.883 19.207-3.431 39.003-11.725 51.154-27.599 6.469-8.448 8.054-17.162 21.65-12.611 9.917 3.317 17.816 11.213 28.788 14.057 37.822 9.804 75.862-0.005 96.128-33.803 11.529-19.234 8.323-44.133 8.323-65.625v-169.34c0-7.972-1.381-15.544-2.854-22.715-3.109-15.128-25.591-17.378-39.494-19.034-6.92-0.825-22.293 1.713-28.078-1.426-4.619-2.507-2.951-4.875-3.806-9.041-0.925-4.505-0.674-9.031-4.758-12.849-5.86-5.474-19.522-6.19-27.125-7.138-8.555-1.067-11.115 0.272-14.75-5.708-4.875-8.019 1.115-13.543-10.948-16.895-18.98-5.274-38.42-5.776-58.04-5.47-14.661 0.23-31.074 0.825-44.919 6.099-12.993 4.949-2.977 12.258-9.806 18.646-0.916-0.834-1.315-1.608-1.902-2.379-2.075-2.732 2.051-6.441-1.727-8.602-3.03-1.73-5.344-2.95-8.62-3.991-11.313-3.6-23.03-4.466-34.859-5.015-24.172-1.12-53.936-1.838-76.137 9.041" stroke="#000" stroke-linecap="square" stroke-miterlimit="10" stroke-width=".4" fill="none"/>
    <path id="path11" fill="#006B33" d="m98.712 97.854c11.317 6.013 24.894 7.041 36.64 11.42-6.571-1.382-33.171-7.428-36.164-0.95-6.12 13.251 41.588 18.337 49.012 18.558-4.786 6.443-45.413-0.684-51.868-7.138-4.639-4.64-3.726-18.34 2.38-21.886"/>
    <path id="path13" fill="#006B33" d="m249.56 356.24c5.604 0.152 12.872-0.173 17.607 0.951 4.581-14.921 1.427-35.107 1.427-50.855v-70.667c0-22.641-0.479-45.276-0.479-67.918 0-9.275 5.027-49.472-1.901-54.669 30.392 3.536 59.185 4.821 89.901 1.533 3.568-0.383 39.411-7.642 35.721-13.429-1.338-2.098-14.656 4.509-17.603 5.232-29.038 7.119-68.078 10.588-97.146 2.575-3.49-0.965-32.896-10.886-20.391-12.092 3.29-0.318 11.371 4.721 14.749 5.71 7.189 2.11 14.452 2.779 21.893 3.333-3.965-0.953-7.933-1.903-11.896-2.856 7.523-3.792 15.094-3.808 23.313-3.808-14.582-1.157-36.479-2.188-49.012-10.467-10.135-6.694-10.256-16.736 1.19-21.652 15.989-6.866 33.258-7.286 50.201-9.277 8.644-1.016 10.846-2.524 16.181-9.518-25.739 15.666-65.463 11.564-94.273 9.64-9.392-0.627-39.718-1.257-38.491-15.828 0.924-10.983 29.168-14.294 38.068-14.275-25.145 0-52.13 0.5-75.184-9.517 3.425 4.898-8.104 8.757-15.465 10.233-5.454 1.089-10.393 3.225-15.941 3.568 16.438 2.266 44.774 0.778 59.005 11.896 17.487 13.66-14.536 21.097-24.269 22.84 19.61-1.664 81.692-4.266 89.461 19.51 1.491 4.563-3.647 10.233 1.426 14.037 9.281 6.961-5.25 14.912-9.921 17.036-17.58 7.993-34.608 10.878-53.842 11.754 1.568 11.571 58.066-2.465 65.669-9.518-0.01 78.52-0.01 159.63-0.01 236.52"/>
    <path id="path15" fill="#E6E6E6" d="m212.92 26.952c12.189 0.581 53.24 2.949 59.955-10.467 4.597-9.18-52.683-12.375-58.395-12.375-8.243 0-61.14-0.757-61.519 11.422-0.36 11.678 53.06 13.005 59.96 11.42"/>
    <path id="path17" d="m212.92 26.952c12.189 0.581 53.24 2.949 59.955-10.467 4.597-9.18-52.683-12.375-58.395-12.375-9.372 0-58.261-1.607-61.279 10.47-3.03 12.12 52.435 12.942 59.719 12.849" stroke="#000" stroke-linecap="square" stroke-miterlimit="10" stroke-width=".2" fill="none"/>
    <path id="path19" fill="#E6E6E6" d="m88.243 33.614c7.519 0 62.537 0.012 61.861-12.373-0.73-13.432-52.306-12.846-61.381-12.846-8.545 0-61.833-0.118-61.384 12.847 0.455 13.129 53.839 12.372 60.908 12.372"/>
    <path id="path21" d="m88.243 33.614c7.519 0 62.537 0.012 61.861-12.373-0.73-13.432-52.306-12.846-61.381-12.846-8.545 0-61.833-0.118-61.384 12.847 0.452 13.058 52.626 12.372 61.384 12.372" stroke="#000" stroke-linecap="square" stroke-miterlimit="10" stroke-width=".2" fill="none"/>
    <path id="path23" fill="#E6E6E6" d="m118.7 68.351c9.453 0 67.256 1.138 67.096-14.276-0.163-15.662-60.889-14.275-70.472-14.275-6.675 0-67.89 2.667-62.767 15.465 5.519 13.805 56.437 15.669 66.137 13.086"/>
    <path id="path25" d="m118.7 68.351c9.453 0 67.256 1.138 67.096-14.276-0.158-15.19-58.424-14.275-67.758-14.275-8.98 0-65.803-0.474-65.957 14.275-0.158 15.14 58.004 14.357 67.096 14.752" stroke="#000" stroke-linecap="square" stroke-miterlimit="10" stroke-width=".2" fill="none"/>
    <path id="path27" fill="#E6E6E6" d="m255.74 59.786c13.305 0 58.511 1.943 64.714-13.562 5.247-13.101-56.451-15.466-63.575-15.466-14.262 0-58.011-2.344-65.854 13.326-6.1 12.173 58.44 15.702 64.71 15.702"/>
    <path id="path29" d="m255.74 59.786c13.305 0 58.511 1.943 64.714-13.562 5.247-13.101-56.451-15.466-63.575-15.466-14.262 0-58.011-2.344-65.854 13.326-6.1 12.173 58.44 15.702 64.71 15.702" stroke="#000" stroke-linecap="square" stroke-miterlimit="10" stroke-width=".2" fill="none"/>
    <path id="path31" fill="#E6E6E6" d="m170.09 110.23c11.983 0 76.317 0.019 75.663-19.034-0.651-18.909-63.887-19.469-76.474-18.986-10.377 0.4-79.219 2.05-73.898 20.652 5.358 18.728 61.448 17.368 74.708 17.368"/>
    <path id="path33" d="m170.09 110.23c11.983 0 76.317 0.019 75.663-19.034-0.651-18.909-63.887-19.469-76.474-18.986-12.417 0.479-73.743-0.088-74.375 18.986-0.63 18.961 63.73 19.034 75.662 19.034" stroke="#000" stroke-linecap="square" stroke-miterlimit="10" stroke-width=".2" fill="none"/>
    <path id="path35" fill="#E6E6E6" d="m320.46 97.854c11.293 0 72.229 1.269 72.331-17.131 0.098-17.798-60.68-17.604-71.853-17.604-11.24 0-72.428-0.286-72.33 17.604 0.09 17.01 62.93 19.196 71.85 17.131"/>
    <path id="path37" d="m320.46 97.854c11.293 0 72.229 1.269 72.331-17.131 0.098-17.798-60.68-17.604-71.853-17.604-11.24 0-72.428-0.286-72.33 17.604 0.103 18.229 60.965 17.153 72.33 17.608" stroke="#000" stroke-linecap="square" stroke-miterlimit="10" stroke-width=".2" fill="none"/>
    <path id="path39" fill="#006B33" d="m95.38 108.32c-7.125 4.146-6.185 12.889-6.185 20.14v203.51c-26.567-9.154-45.206-23.898-45.206-53.059 0-7.845 2.904-14.155-4.995-16.413-4.831-1.385-9.594-3.937-13.089-7.617-10.423-10.976-7.138-27.589-7.138-41.399 9.42 13.29-4.421 33.481 13.802 44.732v-197.96c3.968 2.006 8.666 3.232 12.847 2.38-2.709 4.991-1.009 13.529-1.427 19.034-1.474 19.396 0 39.446 0 58.875v101.51c0 16.06-5.563 44.184 3.329 57.074v-216.51c10.438 12.199 31.093 19.959 47.112 17.608-2.786 3.25-1.032 6.92 0.95 8.1"/>
    <path id="path41" fill="#00A33D" d="m50.651 84.531c0.1 46.362 0.202 92.728 0.302 139.09 0.053 24.363 0.104 48.729 0.158 73.093 0.018 7.834 2.145 12.068 8.581 16.696v-198.23c-0.001-14 4.6-24.605-9.041-30.649"/>
    <path id="path43" fill="#006B33" d="m47.318 60.262c-12.306 11.54 20.199 25.796 27.125 19.984-10.23-2.293-27.724-6.84-27.125-19.984"/>
    <path id="path45" fill="#006B33" d="m24.955 31.711c-10.017 7.498 14.538 20.637 22.363 16.178-8.722-2.117-22.398-6.417-22.363-16.178"/>
    <path id="path47" fill="#006B33" d="m191.98 50.745c9.796 5.442 18.855 8.506 29.98 9.041-4.88 7.741-29.5-0.128-29.98-9.041"/>
    <path id="path49" fill="#006B33" d="m155.34 20.765c8.007 4.276 16.183 5.057 24.269 8.091-4.19 5.719-23.1-0.923-24.27-8.091"/>
    <path id="path51" fill="#00A33D" d="m94.904 122.12c0.102 51.042 0.202 102.08 0.304 153.12 0.051 26.218 0.104 52.437 0.155 78.65 0.019 8.732 2.224 13.068 8.583 18.523v-216.35c0-14.43 5.13-27.66-9.046-33.94"/>
    <path id="path53" fill="#ccc" d="m212.92 23.621c12.082 0 53.324 2.778 59.955-10.468 4.759-9.5-52.753-12.504-58.395-12.774-8.071-0.386-61.519 0.009-61.519 11.822 0 11.417 52.94 12.681 59.96 11.42"/>
    <path id="path55" d="m212.92 23.621c12.082 0 53.324 2.778 59.955-10.468 4.759-9.5-52.753-12.504-58.395-12.774-9.402-0.449-58.315-0.974-61.279 10.869-2.942 11.75 52.534 12.488 59.719 12.849" stroke="#000" stroke-linecap="square" stroke-miterlimit="10" stroke-width=".4" fill="none"/>
    <path id="path57" fill="#ccc" d="m88.243 29.808c8.162 0 62.158 1.176 61.861-12.373-0.28-13.074-53.047-12.372-61.381-12.372-8.665 0-61.143-0.811-61.384 12.373-0.233 12.63 54.695 13.891 60.908 12.372"/>
    <path id="path59" d="m88.243 29.808c8.162 0 62.158 1.176 61.861-12.373-0.28-13.074-53.047-12.372-61.381-12.372-8.665 0-61.143-0.811-61.384 12.373-0.247 13.402 52.813 12.439 61.384 12.846" stroke="#000" stroke-linecap="square" stroke-miterlimit="10" stroke-width=".4" fill="none"/>
    <path id="path61" fill="#ccc" d="m118.7 64.067c9.468 0 66.94 0.802 67.096-14.275 0.158-15.37-60.982-14.998-70.472-14.584-6.712 0.292-68.078 2.509-62.767 15.774 6.12 15.308 55.037 13.085 66.137 13.085"/>
    <path id="path63" d="m118.7 64.067c9.468 0 66.94 0.802 67.096-14.275 0.154-14.801-58.51-15.105-67.758-14.704-9 0.394-66.11-0.28-65.957 14.704 0.154 14.961 58.02 14.275 67.096 14.275" stroke="#000" stroke-linecap="square" stroke-miterlimit="10" stroke-width=".4" fill="none"/>
    <path id="path65" fill="#ccc" d="m255.27 55.503c13.332 0 58.468 2.586 64.714-13.086 5.483-13.758-56.271-15.465-63.575-15.465-10.847 0-62.616-1.917-65.62 13.086-3.11 15.577 55.58 15.465 64.49 15.465"/>
    <path id="path67" d="m255.27 55.503c13.332 0 58.468 2.586 64.714-13.086 5.483-13.758-56.271-15.465-63.575-15.465-10.847 0-62.616-1.917-65.62 13.086-3.11 15.577 55.58 15.465 64.49 15.465" stroke="#000" stroke-linecap="square" stroke-miterlimit="10" stroke-width=".4" fill="none"/>
    <path id="path69" fill="#ccc" d="m169.61 104.52c12.343-0.458 75.813 0.195 75.661-19.034-0.154-18.765-62.844-19.034-75.185-19.034-12.298 0-75.507 0.39-75.66 19.034-0.149 19.134 64.59 18.524 75.19 19.034"/>
    <path id="path71" d="m169.61 104.52c12.343-0.458 75.813 0.195 75.661-19.034-0.154-18.765-62.844-19.034-75.185-19.034-12.298 0-75.507 0.39-75.66 19.034-0.159 19.018 63.366 18.56 75.66 19.034" stroke="#000" stroke-linecap="square" stroke-miterlimit="10" stroke-width=".4" fill="none"/>
    <path id="path73" fill="#ccc" d="m320.46 92.619c11.27 0 72.429 0.667 72.331-17.605-0.093-17.168-60.741-17.591-71.853-17.607-11.181-0.017-72.237 0.372-72.33 17.607-0.11 18.365 62.23 17.605 71.85 17.605"/>
    <path id="path75" d="m320.46 92.619c11.27 0 72.429 0.667 72.331-17.605-0.093-17.168-60.741-17.591-71.853-17.607-11.181-0.017-72.237 0.372-72.33 17.607-0.098 18.266 61.006 17.605 72.33 17.605" stroke="#000" stroke-linecap="square" stroke-miterlimit="10" stroke-width=".4" fill="none"/>
    <path id="path77" fill="#B3B3B3" d="m120.6 10.774c8.163 0.869 40.903 6.873 18.381 13.307-4.991 1.424-12.897-4.815-19.334-4.266 6.83-1.364 9.74-8.825 0.95-9.041"/>
    <path id="path79" fill="#B3B3B3" d="m150.1 41.704c7.76 1.885 45.896 5.319 25.221 15.226-13.257 6.353-13.583-7.707-25.221-5.235 8.41-1.685 7.62-9.299 0-9.991"/>
    <path id="path81" fill="#B3B3B3" d="m210.06 75.488c7.166 1.436 47.283 7.295 28.003 17.819-14.647 7.993-10.921-4.029-22.297-2.114 5.03-5.556 1.61-14.471-5.7-15.705"/>
    <path id="path83" fill="#E6E6E6" d="m175.32 94.048c4.52 10.015 34.055 6.876 39.498-1.429 10.409-15.883-18.063-12.947-27.127-11.42-7.31 1.232-11.785 3.021-19.508 2.856-6.464-0.137-20.426-2.228-25.222 3.329-9.36 10.856 27.58 8.037 32.36 6.664"/>
    <path id="path85" d="m175.32 94.048c3.915 8.678 33.916 7.844 38.782-0.239 10.153-16.88-14.518-14.924-25.935-12.61-7.036 1.427-11.266 2.856-18.558 2.856-8.053 0-18.271-1.694-25.458 2.616-15.154 9.087 25.814 7.852 31.644 7.852" stroke="#000" stroke-linecap="square" stroke-miterlimit="10" stroke-width=".1" fill="none"/>
    <path id="path87" d="m207.68 84.055c-5.497 0-33.462 4.2-17.609 9.993 5.625 2.056 28.312-2.551 18.083-9.993" stroke="#000" stroke-linecap="square" stroke-miterlimit="10" stroke-width=".2" fill="none"/>
    <path id="path89" fill="#E6E6E6" d="m324.27 82.625c3.773 9.743 32.004 6.506 37.115-1.427 9.596-14.898-16.841-12.271-25.698-10.943-6.854 1.027-11.218 3.018-18.556 2.854-5.952-0.135-20.093-2.191-24.271 3.332-7.56 10.007 25.41 7.554 31.42 6.184"/>
    <path id="path91" d="m324.27 82.625c3.773 9.743 32.004 6.506 37.115-1.427 9.596-14.898-16.841-12.271-25.698-10.943-6.854 1.027-11.218 3.018-18.556 2.854-7.397-0.167-16.496-1.33-23.081 2.618-13.778 8.263 24.838 7.375 30.22 7.375" stroke="#000" stroke-linecap="square" stroke-miterlimit="10" stroke-width=".1" fill="none"/>
    <path id="path93" d="m354.72 73.109c-8.506 0-14.151-1.534-19.988 4.284-4.219 4.208 0.01 5.232 4.044 5.232 3.39 0 27.89-2.485 15.95-9.516" stroke="#000" stroke-linecap="square" stroke-miterlimit="10" stroke-width=".2" fill="none"/>
    <path id="path95" fill="#E6E6E6" d="m263.36 47.413c11.05 18.672 57.349-15.42 10.948-9.993-7.342 0.86-29.239 0.047-35.215 4.521-10.17 7.61 19.8 6.387 24.26 5.472"/>
    <path id="path97" d="m263.36 47.413c11.05 18.672 57.349-15.42 10.948-9.993-7.342 0.86-29.239 0.047-35.215 4.521-10.19 7.63 19.063 5.948 24.267 5.948" stroke="#000" stroke-linecap="square" stroke-miterlimit="10" stroke-width=".1" fill="none"/>
    <path id="path99" d="m288.1 39.799c-4.703 0-23.937 2.137-14.749 7.613 4.576 2.731 21.892-0.48 15.228-7.613" stroke="#000" stroke-linecap="square" stroke-miterlimit="10" stroke-width=".2" fill="none"/>
    <path id="path101" fill="#E6E6E6" d="m116.32 56.93c3.85 7.933 26.291 5.109 31.644-0.237 12.728-12.708-14.954-10.231-20.46-10.231-5.439 0-34.048 1.03-37.354 5.233-6.885 8.751 22.194 6.446 26.174 5.235"/>
    <path id="path103" d="m116.32 56.93c3.85 7.933 26.291 5.109 31.644-0.237 12.728-12.708-14.954-10.231-20.46-10.231-5.195 0-11.037 2.379-16.892 2.379-5.815 0-14.613-1.526-19.511 2.14-11.204 8.39 20.087 6.425 25.696 6.425" stroke="#000" stroke-linecap="square" stroke-miterlimit="10" stroke-width=".1" fill="none"/>
    <path id="path105" d="m142.49 48.842c-4.068 0-16.797-2.275-17.605 4.759-0.355 3.102-0.22 3.33 4.043 3.33 4.379 0 22.08-0.364 14.038-8.088" stroke="#000" stroke-linecap="square" stroke-miterlimit="10" stroke-width=".2" fill="none"/>
    <path id="path107" fill="#E6E6E6" d="m88.243 23.621c3.646 6.566 23.205 4.872 28.314-0.237 10.983-10.983-12.303-10.092-17.844-9.281-7.131 1.042-26.344-0.478-32.359 3.809-11.843 8.439 15.691 6.433 21.886 5.709"/>
    <path id="path109" d="m88.243 23.621c3.646 6.566 23.205 4.872 28.314-0.237 10.983-10.983-12.303-10.092-17.844-9.281-7.131 1.042-26.344-0.478-32.359 3.809-11.843 8.439 15.691 6.433 21.886 5.709" stroke="#000" stroke-linecap="square" stroke-miterlimit="10" stroke-width=".1" fill="none"/>
    <path id="path111" d="m112.04 16.006c-6.197 0-23.381 2.962-13.323 7.614 5.033 2.331 19.333-0.802 13.323-7.614" stroke="#000" stroke-linecap="square" stroke-miterlimit="10" stroke-width=".2" fill="none"/>
    <path id="path113" fill="#E6E6E6" d="m220.06 17.912c3.876 5.744 21.669 5.232 26.172 0.474 10.581-11.185-8.922-9.518-15.466-9.518-5.297 0-10.2 2.05-15.938 1.906-4.559-0.114-11.777-1.22-15.705 1.427-11.71 7.89 15.7 6.577 20.94 5.711"/>
    <path id="path115" d="m220.06 17.912c3.876 5.744 21.669 5.232 26.172 0.474 10.581-11.185-8.922-9.518-15.466-9.518-5.297 0-10.2 2.05-15.938 1.906-4.559-0.114-11.777-1.22-15.705 1.427-11.71 7.89 15.7 6.577 20.94 5.711" stroke="#000" stroke-linecap="square" stroke-miterlimit="10" stroke-width=".1" fill="none"/>
    <path id="path117" d="m242.42 10.774c-3.136 0-14.187-1.787-15.228 3.806-0.6 3.218-0.093 3.333 3.568 3.333 4.3-0.001 18.63-0.28 11.66-7.139" stroke="#000" stroke-linecap="square" stroke-miterlimit="10" stroke-width=".2" fill="none"/>
    <path id="path119" fill="#B3B3B3" d="m371.85 68.351c4.15 2.953 4.935 8.756-0.479 9.993 2.301 2.846 2.52 6.071 0.479 9.04 4.745-1.835 17.599-3.796 18.792-9.753 1.1-5.412-15.17-8.464-18.79-9.28"/>
    <path id="path121" fill="#B3B3B3" d="m309.04 36.469c3.602 7.043-5.372 12.844-11.423 14.276 11.77 0.033 32.24-6.62 11.42-14.276"/>
    <path id="path123" fill="#B3B3B3" d="m262.88 9.821c2.857 3.513 1.97 7.495-2.38 9.04 8.79-0.141 14.08-8.312 2.38-9.04"/>
    <path id="path125" d="m390.41 76.44c-17.923-13.093-46.775-13.322-68.046-13.322-24.336 0-51.126 0.838-72.33 13.799" stroke="#000" stroke-linecap="square" stroke-miterlimit="10" stroke-width=".1" fill="none"/>
    <path id="path127" d="m244.32 86.434c-18.857-12.86-50.401-14.798-72.69-14.255-25.424 0.621-53.462-0.22-74.822 15.205" stroke="#000" stroke-linecap="square" stroke-miterlimit="10" stroke-width=".1" fill="none"/>
    <path id="path129" d="m184.37 51.222c-18.124-11.648-44.425-11.123-65.193-11.422-20.18-0.292-48.173-1.307-65.198 11.422" stroke="#000" stroke-linecap="square" stroke-miterlimit="10" stroke-width=".1" fill="none"/>
    <path id="path131" d="m319.03 41.704c-16.739-11.822-43.255-11.222-62.813-10.946-21.047 0.298-45.861 0.324-64.238 11.896" stroke="#000" stroke-linecap="square" stroke-miterlimit="10" stroke-width=".1" fill="none"/>
    <path id="path133" d="m271.92 13.153c-32.287-14.51-85.807-13.964-118.01 0.474" stroke="#000" stroke-linecap="square" stroke-miterlimit="10" stroke-width=".1" fill="none"/>
    <path id="path135" d="m148.2 18.386c-30.63-14.994-88.586-14.645-119.44-0.474" stroke="#000" stroke-linecap="square" stroke-miterlimit="10" stroke-width=".1" fill="none"/>
    <path id="path137" d="m29.713 13.627c-3.743 6.067-7.033 14.396-7.614 20.94-0.253 2.855 1.031 6.031 0.477 8.564-0.542 2.472-3.128 3.997-3.809 7.138-2.365 10.895 0 24.776 0 35.738v154.63c0 14.573 25.222 19.429 25.222 27.203 0 23.193-0.853 34.713 17.658 50.137 6.715 5.6 14.966 9.801 23.264 12.565 7.539 2.519 4.319 19.183 6.293 27.073 9.382 37.506 69.638 43.357 100.3 37.883 19.207-3.431 39.003-11.725 51.154-27.599 6.469-8.448 8.054-17.162 21.65-12.611 9.917 3.317 17.816 11.213 28.788 14.057 37.822 9.804 75.862-0.005 96.128-33.803 11.529-19.234 8.323-44.133 8.323-65.625v-169.34c0-7.972-1.381-15.544-2.854-22.715-3.109-15.128-25.591-17.378-39.494-19.034-6.92-0.825-22.293 1.713-28.078-1.426-4.619-2.507-2.951-4.875-3.806-9.041-0.925-4.505-0.674-9.031-4.758-12.849-5.86-5.474-19.522-6.19-27.125-7.138-8.555-1.067-11.115 0.272-14.75-5.708-4.875-8.019 1.115-13.543-10.948-16.895-18.98-5.274-38.42-5.776-58.04-5.47-14.661 0.23-31.074 0.825-44.919 6.099-12.993 4.949-2.977 12.258-9.806 18.646-0.916-0.834-1.315-1.608-1.902-2.379-2.075-2.732 2.051-6.441-1.727-8.602-3.03-1.73-5.344-2.95-8.62-3.991-11.313-3.6-23.03-4.466-34.859-5.015-24.172-1.12-53.936-1.838-76.137 9.041" stroke="#000" stroke-linecap="square" stroke-miterlimit="10" stroke-width=".4" fill="none"/>
    <path id="path139" fill="#C1E339" d="m191.03 291.53c66.552 1.486 62.862-128.22-3.569-120.39-27.771 3.27-46.905 34.674-44.344 61.519 2.17 22.83 18.71 65.06 47.91 58.87"/>
    <path id="path141" d="m191.03 291.53c30.803 0.687 48.777-33.398 48.535-60.435-0.228-25.387-18.072-63.966-49.323-60.286-62.14 7.316-62.979 117.96 1.263 121.19" stroke="#000" stroke-linecap="square" stroke-miterlimit="10" stroke-width=".2" fill="none"/>
    <path id="path143" fill="#C1E339" d="m346.63 274.39c61.792-3.071 64.966-113.71 4.044-120.86-65.76-7.73-70.53 116.87-4.04 120.86"/>
    <path id="path145" d="m346.63 274.39c61.792-3.071 64.966-113.71 4.044-120.86-65.76-7.73-70.53 116.87-4.04 120.86" stroke="#000" stroke-linecap="square" stroke-miterlimit="10" stroke-width=".2" fill="none"/>
  </g>
  <metadata>
    <rdf:RDF>
      <cc:Work>
        <dc:format>image/svg+xml</dc:format>
        <dc:type rdf:resource="http://purl.org/dc/dcmitype/StillImage"/>
        <cc:license rdf:resource="http://creativecommons.org/licenses/publicdomain/"/>
        <dc:publisher>
          <cc:Agent rdf:about="http://openclipart.org/">
            <dc:title>Openclipart</dc:title>
          </cc:Agent>
        </dc:publisher>
        <dc:title>Architetto -- lattine di birra</dc:title>
        <dc:date>2010-03-10T19:57:49</dc:date>
        <dc:description>Drawing by Francesco 'Architetto' Rollandin. From OCAL 0.18 release.</dc:description>
        <dc:source>http://openclipart.org/detail/30901/architetto----lattine-di-birra-by-anonymous</dc:source>
        <dc:creator>
          <cc:Agent>
            <dc:title>Anonymous</dc:title>
          </cc:Agent>
        </dc:creator>
        <dc:subject>
          <rdf:Bag>
            <rdf:li>alcohol</rdf:li>
            <rdf:li>beer</rdf:li>
            <rdf:li>can</rdf:li>
            <rdf:li>clip art</rdf:li>
            <rdf:li>clipart</rdf:li>
            <rdf:li>drink</rdf:li>
          </rdf:Bag>
        </dc:subject>
      </cc:Work>
      <cc:License rdf:about="http://creativecommons.org/licenses/publicdomain/">
        <cc:permits rdf:resource="http://creativecommons.org/ns#Reproduction"/>
        <cc:permits rdf:resource="http://creativecommons.org/ns#Distribution"/>
        <cc:permits rdf:resource="http://creativecommons.org/ns#DerivativeWorks"/>
      </cc:License>
    </rdf:RDF>
  </metadata>
</svg>
